<svg xmlns="http://www.w3.org/2000/svg" width="1440" height="900"><path d="M662,450L547,450L547,565Z" fill="#55b8c1" stroke="#55b8c1" stroke-width="1.51"/><path d="M547,565L662,565L662,450Z" fill="#4cb2c1" stroke="#4cb2c1" stroke-width="1.51"/><path d="M547,450L432,450L547,565Z" fill="#60bcc0" stroke="#60bcc0" stroke-width="1.51"/><path d="M432,450L432,565L547,565Z" fill="#64b9be" stroke="#64b9be" stroke-width="1.51"/><path d="M547,565L547,680L662,565Z" fill="#4daac0" stroke="#4daac0" stroke-width="1.51"/><path d="M432,565L547,680L547,565Z" fill="#58aebe" stroke="#58aebe" stroke-width="1.51"/><path d="M547,680L662,680L662,565Z" fill="#47a2be" stroke="#47a2be" stroke-width="1.51"/><path d="M662,565L777,450L662,450Z" fill="#42b2c3" stroke="#42b2c3" stroke-width="1.51"/><path d="M777,565L777,450L662,565Z" fill="#39abc3" stroke="#39abc3" stroke-width="1.51"/><path d="M662,680L777,565L662,565Z" fill="#38a5c2" stroke="#38a5c2" stroke-width="1.51"/><path d="M662,450L547,334L547,450Z" fill="#5fbfc1" stroke="#5fbfc1" stroke-width="1.51"/><path d="M547,450L547,334L432,450Z" fill="#69c3bf" stroke="#69c3bf" stroke-width="1.51"/><path d="M662,334L547,334L662,450Z" fill="#62c1c0" stroke="#62c1c0" stroke-width="1.51"/><path d="M777,450L662,334L662,450Z" fill="#4ebac3" stroke="#4ebac3" stroke-width="1.51"/><path d="M432,565L432,680L547,680Z" fill="#5faabb" stroke="#5faabb" stroke-width="1.51"/><path d="M662,680L777,680L777,565Z" fill="#339cc0" stroke="#339cc0" stroke-width="1.51"/><path d="M547,334L432,334L432,450Z" fill="#76c8bd" stroke="#76c8bd" stroke-width="1.51"/><path d="M777,450L777,334L662,334Z" fill="#53bac2" stroke="#53bac2" stroke-width="1.51"/><path d="M547,680L547,795L662,680Z" fill="#4e97b8" stroke="#4e97b8" stroke-width="1.51"/><path d="M662,680L662,795L777,680Z" fill="#3a92b9" stroke="#3a92b9" stroke-width="1.51"/><path d="M432,680L547,795L547,680Z" fill="#589bb6" stroke="#589bb6" stroke-width="1.51"/><path d="M547,795L662,795L662,680Z" fill="#488fb6" stroke="#488fb6" stroke-width="1.51"/><path d="M777,450L892,450L777,334Z" fill="#46b1c2" stroke="#46b1c2" stroke-width="1.51"/><path d="M777,565L892,450L777,450Z" fill="#38a9c3" stroke="#38a9c3" stroke-width="1.51"/><path d="M892,565L892,450L777,565Z" fill="#32a2c2" stroke="#32a2c2" stroke-width="1.51"/><path d="M777,680L892,565L777,565Z" fill="#2c9cc1" stroke="#2c9cc1" stroke-width="1.51"/><path d="M432,450L316,450L432,565Z" fill="#76c3be" stroke="#76c3be" stroke-width="1.51"/><path d="M432,565L316,565L432,680Z" fill="#6fb5bd" stroke="#6fb5bd" stroke-width="1.51"/><path d="M432,334L316,450L432,450Z" fill="#7ecabd" stroke="#7ecabd" stroke-width="1.51"/><path d="M316,450L316,565L432,565Z" fill="#7bc0bd" stroke="#7bc0bd" stroke-width="1.51"/><path d="M432,680L432,795L547,795Z" fill="#5f96b3" stroke="#5f96b3" stroke-width="1.51"/><path d="M547,334L547,219L432,334Z" fill="#7dcbbc" stroke="#7dcbbc" stroke-width="1.51"/><path d="M662,334L547,219L547,334Z" fill="#74c7bd" stroke="#74c7bd" stroke-width="1.51"/><path d="M662,219L547,219L662,334Z" fill="#79c9bd" stroke="#79c9bd" stroke-width="1.51"/><path d="M777,334L662,219L662,334Z" fill="#66c2bf" stroke="#66c2bf" stroke-width="1.51"/><path d="M316,680L432,795L432,680Z" fill="#6ea1b5" stroke="#6ea1b5" stroke-width="1.51"/><path d="M662,795L777,795L777,680Z" fill="#3689b7" stroke="#3689b7" stroke-width="1.51"/><path d="M777,680L892,680L892,565Z" fill="#2a93bf" stroke="#2a93bf" stroke-width="1.51"/><path d="M777,795L892,680L777,680Z" fill="#2f89b9" stroke="#2f89b9" stroke-width="1.51"/><path d="M777,334L777,219L662,219Z" fill="#6ec3bf" stroke="#6ec3bf" stroke-width="1.51"/><path d="M892,450L892,334L777,334Z" fill="#4eb0c1" stroke="#4eb0c1" stroke-width="1.51"/><path d="M316,565L316,680L432,680Z" fill="#76b0ba" stroke="#76b0ba" stroke-width="1.51"/><path d="M547,219L432,219L432,334Z" fill="#8bd1ba" stroke="#8bd1ba" stroke-width="1.51"/><path d="M432,334L316,334L316,450Z" fill="#8bcfbc" stroke="#8bcfbc" stroke-width="1.51"/><path d="M892,334L777,219L777,334Z" fill="#60b9bf" stroke="#60b9bf" stroke-width="1.51"/><path d="M432,219L316,334L432,334Z" fill="#8fd2ba" stroke="#8fd2ba" stroke-width="1.51"/><path d="M432,795L547,910L547,795Z" fill="#5a8aaf" stroke="#5a8aaf" stroke-width="1.51"/><path d="M547,795L547,910L662,795Z" fill="#5086b0" stroke="#5086b0" stroke-width="1.51"/><path d="M662,795L662,910L777,795Z" fill="#3f81b2" stroke="#3f81b2" stroke-width="1.51"/><path d="M432,910L547,910L432,795Z" fill="#6186ac" stroke="#6186ac" stroke-width="1.51"/><path d="M547,910L662,910L662,795Z" fill="#4c7fae" stroke="#4c7fae" stroke-width="1.51"/><path d="M777,910L892,795L777,795Z" fill="#3479b1" stroke="#3479b1" stroke-width="1.51"/><path d="M777,795L892,795L892,680Z" fill="#2d80b6" stroke="#2d80b6" stroke-width="1.51"/><path d="M316,680L316,795L432,795Z" fill="#749cb2" stroke="#749cb2" stroke-width="1.51"/><path d="M892,334L892,219L777,219Z" fill="#69b9be" stroke="#69b9be" stroke-width="1.51"/><path d="M316,450L201,450L316,565Z" fill="#8bcabd" stroke="#8bcabd" stroke-width="1.51"/><path d="M316,565L201,565L316,680Z" fill="#84bbbc" stroke="#84bbbc" stroke-width="1.51"/><path d="M316,680L201,680L316,795Z" fill="#82a7b4" stroke="#82a7b4" stroke-width="1.51"/><path d="M316,334L201,450L316,450Z" fill="#92d1bc" stroke="#92d1bc" stroke-width="1.51"/><path d="M201,450L201,565L316,565Z" fill="#8dc6bc" stroke="#8dc6bc" stroke-width="1.51"/><path d="M662,104L547,104L662,219Z" fill="#96d3ba" stroke="#96d3ba" stroke-width="1.51"/><path d="M662,219L547,104L547,219Z" fill="#91d2bb" stroke="#91d2bb" stroke-width="1.51"/><path d="M547,219L547,104L432,219Z" fill="#99d6b9" stroke="#99d6b9" stroke-width="1.51"/><path d="M432,219L316,219L316,334Z" fill="#9ed8b9" stroke="#9ed8b9" stroke-width="1.51"/><path d="M662,104L662,219L777,219Z" fill="#86ccbd" stroke="#86ccbd" stroke-width="1.51"/><path d="M777,104L662,104L777,219Z" fill="#8dcdbd" stroke="#8dcdbd" stroke-width="1.51"/><path d="M892,450L1008,450L892,334Z" fill="#40a8c1" stroke="#40a8c1" stroke-width="1.51"/><path d="M892,334L1008,334L892,219Z" fill="#5bafbe" stroke="#5bafbe" stroke-width="1.51"/><path d="M892,565L1008,450L892,450Z" fill="#30a0c2" stroke="#30a0c2" stroke-width="1.51"/><path d="M1008,565L1008,450L892,565Z" fill="#2a98c0" stroke="#2a98c0" stroke-width="1.51"/><path d="M1008,565L892,565L892,680Z" fill="#2193c0" stroke="#2193c0" stroke-width="1.51"/><path d="M1008,680L1008,565L892,680Z" fill="#2089bd" stroke="#2089bd" stroke-width="1.51"/><path d="M316,334L201,334L201,450Z" fill="#9cd5ba" stroke="#9cd5ba" stroke-width="1.51"/><path d="M432,104L316,219L432,219Z" fill="#a9ddb7" stroke="#a9ddb7" stroke-width="1.51"/><path d="M316,795L432,910L432,795Z" fill="#6e90ae" stroke="#6e90ae" stroke-width="1.51"/><path d="M662,910L777,910L777,795Z" fill="#3c79b0" stroke="#3c79b0" stroke-width="1.51"/><path d="M201,565L201,680L316,680Z" fill="#88b6b9" stroke="#88b6b9" stroke-width="1.51"/><path d="M547,104L432,104L432,219Z" fill="#a6dbb7" stroke="#a6dbb7" stroke-width="1.51"/><path d="M892,219L777,104L777,219Z" fill="#80c3bd" stroke="#80c3bd" stroke-width="1.51"/><path d="M892,795L1008,680L892,680Z" fill="#2480b8" stroke="#2480b8" stroke-width="1.51"/><path d="M1008,795L1008,680L892,795Z" fill="#2377b4" stroke="#2377b4" stroke-width="1.51"/><path d="M316,219L201,334L316,334Z" fill="#a2d9b8" stroke="#a2d9b8" stroke-width="1.51"/><path d="M892,219L892,104L777,104Z" fill="#88c3bc" stroke="#88c3bc" stroke-width="1.51"/><path d="M1008,450L1008,334L892,334Z" fill="#49a7bf" stroke="#49a7bf" stroke-width="1.51"/><path d="M777,910L892,910L892,795Z" fill="#3370af" stroke="#3370af" stroke-width="1.51"/><path d="M201,795L316,910L316,795Z" fill="#8196ad" stroke="#8196ad" stroke-width="1.51"/><path d="M316,795L316,910L432,910Z" fill="#758cab" stroke="#758cab" stroke-width="1.51"/><path d="M201,680L201,795L316,795Z" fill="#86a2b1" stroke="#86a2b1" stroke-width="1.51"/><path d="M1008,219L892,104L892,219Z" fill="#7cb9bc" stroke="#7cb9bc" stroke-width="1.51"/><path d="M892,910L1008,795L892,795Z" fill="#2a70b0" stroke="#2a70b0" stroke-width="1.51"/><path d="M316,219L201,219L201,334Z" fill="#aedeb7" stroke="#aedeb7" stroke-width="1.51"/><path d="M316,104L201,219L316,219Z" fill="#bbe4b6" stroke="#bbe4b6" stroke-width="1.51"/><path d="M432,104L316,104L316,219Z" fill="#b7e2b6" stroke="#b7e2b6" stroke-width="1.51"/><path d="M1008,334L1008,219L892,219Z" fill="#65afbd" stroke="#65afbd" stroke-width="1.51"/><path d="M201,450L86,450L201,565Z" fill="#97cdbc" stroke="#97cdbc" stroke-width="1.51"/><path d="M201,565L86,565L201,680Z" fill="#90bfbb" stroke="#90bfbb" stroke-width="1.51"/><path d="M201,680L86,680L201,795Z" fill="#8eabb3" stroke="#8eabb3" stroke-width="1.51"/><path d="M201,334L86,450L201,450Z" fill="#9ed5bb" stroke="#9ed5bb" stroke-width="1.51"/><path d="M86,334L86,450L201,334Z" fill="#a7d9ba" stroke="#a7d9ba" stroke-width="1.51"/><path d="M86,450L86,565L201,565Z" fill="#98cabb" stroke="#98cabb" stroke-width="1.51"/><path d="M547,104L547,-11L432,104Z" fill="#acddb8" stroke="#acddb8" stroke-width="1.51"/><path d="M432,104L432,-11L316,104Z" fill="#bce4b6" stroke="#bce4b6" stroke-width="1.51"/><path d="M662,104L547,-11L547,104Z" fill="#a5d9b9" stroke="#a5d9b9" stroke-width="1.51"/><path d="M662,-11L547,-11L662,104Z" fill="#a7d9ba" stroke="#a7d9ba" stroke-width="1.51"/><path d="M662,-11L662,104L777,104Z" fill="#9bd3bc" stroke="#9bd3bc" stroke-width="1.51"/><path d="M662,910L662,1026L777,910Z" fill="#3f72a7" stroke="#3f72a7" stroke-width="1.51"/><path d="M777,910L777,1026L892,910Z" fill="#356aa7" stroke="#356aa7" stroke-width="1.51"/><path d="M547,910L547,1026L662,910Z" fill="#4f77a6" stroke="#4f77a6" stroke-width="1.51"/><path d="M432,910L547,1026L547,910Z" fill="#597aa5" stroke="#597aa5" stroke-width="1.51"/><path d="M432,1026L547,1026L432,910Z" fill="#5a799c" stroke="#5a799c" stroke-width="1.51"/><path d="M777,-11L662,-11L777,104Z" fill="#9ed3bc" stroke="#9ed3bc" stroke-width="1.51"/><path d="M547,1026L662,1026L662,910Z" fill="#46729e" stroke="#46729e" stroke-width="1.51"/><path d="M1008,450L1123,450L1008,334Z" fill="#419bbc" stroke="#419bbc" stroke-width="1.51"/><path d="M1008,334L1123,334L1008,219Z" fill="#5aa2b9" stroke="#5aa2b9" stroke-width="1.51"/><path d="M1008,565L1123,450L1008,450Z" fill="#3294bd" stroke="#3294bd" stroke-width="1.51"/><path d="M1123,565L1123,450L1008,565Z" fill="#2d8bba" stroke="#2d8bba" stroke-width="1.51"/><path d="M1123,565L1008,565L1008,680Z" fill="#2286bb" stroke="#2286bb" stroke-width="1.51"/><path d="M1123,680L1123,565L1008,680Z" fill="#227cb7" stroke="#227cb7" stroke-width="1.51"/><path d="M86,565L86,680L201,680Z" fill="#93bab8" stroke="#93bab8" stroke-width="1.51"/><path d="M547,-11L432,-11L432,104Z" fill="#b6e1b6" stroke="#b6e1b6" stroke-width="1.51"/><path d="M316,910L432,1026L432,910Z" fill="#6c80a3" stroke="#6c80a3" stroke-width="1.51"/><path d="M892,104L777,-11L777,104Z" fill="#95cabc" stroke="#95cabc" stroke-width="1.51"/><path d="M892,-11L777,-11L892,104Z" fill="#9ac8bb" stroke="#9ac8bb" stroke-width="1.51"/><path d="M892,910L1008,910L1008,795Z" fill="#2a67ad" stroke="#2a67ad" stroke-width="1.51"/><path d="M662,1026L777,1026L777,910Z" fill="#376da0" stroke="#376da0" stroke-width="1.51"/><path d="M1008,795L1123,680L1008,680Z" fill="#2374b3" stroke="#2374b3" stroke-width="1.51"/><path d="M201,219L86,334L201,334Z" fill="#adddb7" stroke="#adddb7" stroke-width="1.51"/><path d="M1123,450L1123,334L1008,334Z" fill="#4a99b9" stroke="#4a99b9" stroke-width="1.51"/><path d="M86,795L201,910L201,795Z" fill="#8c9aac" stroke="#8c9aac" stroke-width="1.51"/><path d="M201,795L201,910L316,910Z" fill="#8591aa" stroke="#8591aa" stroke-width="1.51"/><path d="M316,910L316,1026L432,1026Z" fill="#6d7f9b" stroke="#6d7f9b" stroke-width="1.51"/><path d="M1008,795L1123,795L1123,680Z" fill="#236aae" stroke="#236aae" stroke-width="1.51"/><path d="M892,1026L1008,910L892,910Z" fill="#2c61a5" stroke="#2c61a5" stroke-width="1.51"/><path d="M201,219L86,219L86,334Z" fill="#b8e2b6" stroke="#b8e2b6" stroke-width="1.51"/><path d="M316,104L201,104L201,219Z" fill="#c7e8b4" stroke="#c7e8b4" stroke-width="1.51"/><path d="M316,-11L201,104L316,104Z" fill="#cdebb4" stroke="#cdebb4" stroke-width="1.51"/><path d="M1008,219L1008,104L892,104Z" fill="#84b9ba" stroke="#84b9ba" stroke-width="1.51"/><path d="M1123,219L1008,104L1008,219Z" fill="#7aacb7" stroke="#7aacb7" stroke-width="1.51"/><path d="M86,680L86,795L201,795Z" fill="#90a6b0" stroke="#90a6b0" stroke-width="1.51"/><path d="M1008,104L892,-11L892,104Z" fill="#91c0bb" stroke="#91c0bb" stroke-width="1.51"/><path d="M777,1026L892,1026L892,910Z" fill="#2e649f" stroke="#2e649f" stroke-width="1.51"/><path d="M1008,910L1123,795L1008,795Z" fill="#2764ab" stroke="#2764ab" stroke-width="1.51"/><path d="M201,104L86,219L201,219Z" fill="#c5e8b5" stroke="#c5e8b5" stroke-width="1.51"/><path d="M432,-11L316,-11L316,104Z" fill="#c7e8b5" stroke="#c7e8b5" stroke-width="1.51"/><path d="M201,1026L316,1026L201,910Z" fill="#7d849a" stroke="#7d849a" stroke-width="1.51"/><path d="M201,910L316,1026L316,910Z" fill="#7e86a2" stroke="#7e86a2" stroke-width="1.51"/><path d="M1123,334L1123,219L1008,219Z" fill="#65a1b7" stroke="#65a1b7" stroke-width="1.51"/><path d="M86,334L-29,450L86,450Z" fill="#a9d9ba" stroke="#a9d9ba" stroke-width="1.51"/><path d="M86,450L-29,450L86,565Z" fill="#a2d1bb" stroke="#a2d1bb" stroke-width="1.51"/><path d="M86,565L-29,565L86,680Z" fill="#9bc3ba" stroke="#9bc3ba" stroke-width="1.51"/><path d="M86,680L-29,680L86,795Z" fill="#98afb3" stroke="#98afb3" stroke-width="1.51"/><path d="M-29,334L-29,450L86,334Z" fill="#b1ddbb" stroke="#b1ddbb" stroke-width="1.51"/><path d="M-29,450L-29,565L86,565Z" fill="#a2cebc" stroke="#a2cebc" stroke-width="1.51"/><path d="M1123,334L1238,334L1123,219Z" fill="#5a95b3" stroke="#5a95b3" stroke-width="1.51"/><path d="M1123,450L1238,450L1123,334Z" fill="#428eb6" stroke="#428eb6" stroke-width="1.51"/><path d="M1123,565L1238,450L1123,450Z" fill="#3487b7" stroke="#3487b7" stroke-width="1.51"/><path d="M1238,565L1238,450L1123,565Z" fill="#2f7fb4" stroke="#2f7fb4" stroke-width="1.51"/><path d="M1238,565L1123,565L1123,680Z" fill="#247ab5" stroke="#247ab5" stroke-width="1.51"/><path d="M1238,680L1238,565L1123,680Z" fill="#2470b1" stroke="#2470b1" stroke-width="1.51"/><path d="M547,-11L547,-127L432,-11Z" fill="#b9e2ba" stroke="#b9e2ba" stroke-width="1.51"/><path d="M432,-11L432,-127L316,-11Z" fill="#c9e9b8" stroke="#c9e9b8" stroke-width="1.51"/><path d="M662,-11L547,-127L547,-11Z" fill="#b3debc" stroke="#b3debc" stroke-width="1.51"/><path d="M662,-127L547,-127L662,-11Z" fill="#b1ddc1" stroke="#b1ddc1" stroke-width="1.51"/><path d="M662,-127L662,-11L777,-11Z" fill="#a9d8be" stroke="#a9d8be" stroke-width="1.51"/><path d="M777,-127L662,-127L777,-11Z" fill="#a8d7c3" stroke="#a8d7c3" stroke-width="1.51"/><path d="M86,795L86,910L201,910Z" fill="#8f95aa" stroke="#8f95aa" stroke-width="1.51"/><path d="M-29,795L86,910L86,795Z" fill="#979dac" stroke="#979dac" stroke-width="1.51"/><path d="M1123,795L1238,680L1123,680Z" fill="#2367ad" stroke="#2367ad" stroke-width="1.51"/><path d="M1008,910L1123,910L1123,795Z" fill="#285aa7" stroke="#285aa7" stroke-width="1.51"/><path d="M1008,1026L1123,910L1008,910Z" fill="#2855a0" stroke="#2855a0" stroke-width="1.51"/><path d="M-29,565L-29,680L86,680Z" fill="#9dbdba" stroke="#9dbdba" stroke-width="1.51"/><path d="M1238,795L1238,680L1123,795Z" fill="#235ea8" stroke="#235ea8" stroke-width="1.51"/><path d="M86,219L-29,334L86,334Z" fill="#b8e1b6" stroke="#b8e1b6" stroke-width="1.51"/><path d="M1238,450L1238,334L1123,334Z" fill="#4b8db4" stroke="#4b8db4" stroke-width="1.51"/><path d="M86,219L-29,219L-29,334Z" fill="#c2e6b7" stroke="#c2e6b7" stroke-width="1.51"/><path d="M201,104L86,104L86,219Z" fill="#d0ecb3" stroke="#d0ecb3" stroke-width="1.51"/><path d="M201,-11L86,104L201,104Z" fill="#d7efb3" stroke="#d7efb3" stroke-width="1.51"/><path d="M201,-11L201,104L316,-11Z" fill="#d6eeb3" stroke="#d6eeb3" stroke-width="1.51"/><path d="M316,-127L201,-11L316,-11Z" fill="#d9f0b6" stroke="#d9f0b6" stroke-width="1.51"/><path d="M86,910L201,1026L201,910Z" fill="#898aa2" stroke="#898aa2" stroke-width="1.51"/><path d="M1123,104L1008,-11L1008,104Z" fill="#8fb3b6" stroke="#8fb3b6" stroke-width="1.51"/><path d="M1008,104L1008,-11L892,-11Z" fill="#96beba" stroke="#96beba" stroke-width="1.51"/><path d="M892,-11L777,-127L777,-11Z" fill="#a3cfbe" stroke="#a3cfbe" stroke-width="1.51"/><path d="M1123,104L1008,104L1123,219Z" fill="#83abb5" stroke="#83abb5" stroke-width="1.51"/><path d="M892,1026L1008,1026L1008,910Z" fill="#255b9d" stroke="#255b9d" stroke-width="1.51"/><path d="M1238,219L1123,104L1123,219Z" fill="#799fb2" stroke="#799fb2" stroke-width="1.51"/><path d="M547,-127L432,-127L432,-11Z" fill="#c0e5be" stroke="#c0e5be" stroke-width="1.51"/><path d="M892,-127L777,-127L892,-11Z" fill="#a3ccc3" stroke="#a3ccc3" stroke-width="1.51"/><path d="M86,910L86,1026L201,1026Z" fill="#87889a" stroke="#87889a" stroke-width="1.51"/><path d="M-29,680L-29,795L86,795Z" fill="#9aa9b2" stroke="#9aa9b2" stroke-width="1.51"/><path d="M1238,910L1238,795L1123,910Z" fill="#254fa1" stroke="#254fa1" stroke-width="1.51"/><path d="M1123,910L1238,795L1123,795Z" fill="#2557a5" stroke="#2557a5" stroke-width="1.51"/><path d="M86,104L-29,219L86,219Z" fill="#cfecb4" stroke="#cfecb4" stroke-width="1.51"/><path d="M1238,334L1238,219L1123,219Z" fill="#6595b1" stroke="#6595b1" stroke-width="1.51"/><path d="M1008,-11L892,-127L892,-11Z" fill="#9fc5bd" stroke="#9fc5bd" stroke-width="1.51"/><path d="M432,-127L316,-127L316,-11Z" fill="#d0ecbc" stroke="#d0ecbc" stroke-width="1.51"/><path d="M201,-11L86,-11L86,104Z" fill="#dff3b2" stroke="#dff3b2" stroke-width="1.51"/><path d="M86,104L-29,104L-29,219Z" fill="#d9f0b4" stroke="#d9f0b4" stroke-width="1.51"/><path d="M201,-127L86,-11L201,-11Z" fill="#e4f4b5" stroke="#e4f4b5" stroke-width="1.51"/><path d="M-29,910L86,1026L86,910Z" fill="#938da1" stroke="#938da1" stroke-width="1.51"/><path d="M1008,-11L1008,-127L892,-127Z" fill="#9fc2c1" stroke="#9fc2c1" stroke-width="1.51"/><path d="M1123,104L1123,-11L1008,-11Z" fill="#94b0b4" stroke="#94b0b4" stroke-width="1.51"/><path d="M1238,104L1123,-11L1123,104Z" fill="#8da5b1" stroke="#8da5b1" stroke-width="1.51"/><path d="M1008,1026L1123,1026L1123,910Z" fill="#234e97" stroke="#234e97" stroke-width="1.51"/><path d="M-29,795L-29,910L86,910Z" fill="#9898ab" stroke="#9898ab" stroke-width="1.51"/><path d="M1123,1026L1238,910L1123,910Z" fill="#25499a" stroke="#25499a" stroke-width="1.51"/><path d="M1238,334L1353,334L1238,219Z" fill="#5c8aaf" stroke="#5c8aaf" stroke-width="1.51"/><path d="M1238,450L1353,450L1238,334Z" fill="#4583b2" stroke="#4583b2" stroke-width="1.51"/><path d="M1238,565L1353,450L1238,450Z" fill="#377cb2" stroke="#377cb2" stroke-width="1.51"/><path d="M1353,565L1353,450L1238,565Z" fill="#3474af" stroke="#3474af" stroke-width="1.51"/><path d="M1353,565L1238,565L1238,680Z" fill="#296fb0" stroke="#296fb0" stroke-width="1.51"/><path d="M1353,565L1238,680L1353,680Z" fill="#2966ac" stroke="#2966ac" stroke-width="1.51"/><path d="M1353,680L1238,680L1238,795Z" fill="#265da8" stroke="#265da8" stroke-width="1.51"/><path d="M86,-11L-29,104L86,104Z" fill="#e1f3b2" stroke="#e1f3b2" stroke-width="1.51"/><path d="M1238,219L1238,104L1123,104Z" fill="#819eaf" stroke="#819eaf" stroke-width="1.51"/><path d="M1353,219L1238,104L1238,219Z" fill="#7993ad" stroke="#7993ad" stroke-width="1.51"/><path d="M-29,334L-145,450L-29,450Z" fill="#aedbc3" stroke="#aedbc3" stroke-width="1.51"/><path d="M-29,450L-145,450L-29,565Z" fill="#a7d3c3" stroke="#a7d3c3" stroke-width="1.51"/><path d="M-29,565L-145,565L-29,680Z" fill="#a0c5c2" stroke="#a0c5c2" stroke-width="1.51"/><path d="M-29,680L-145,680L-29,795Z" fill="#9db1ba" stroke="#9db1ba" stroke-width="1.51"/><path d="M-29,795L-145,795L-29,910Z" fill="#9b9fb3" stroke="#9b9fb3" stroke-width="1.51"/><path d="M-145,334L-145,450L-29,334Z" fill="#b4dec4" stroke="#b4dec4" stroke-width="1.51"/><path d="M-145,334L-29,334L-29,219Z" fill="#bde3bf" stroke="#bde3bf" stroke-width="1.51"/><path d="M-145,450L-145,565L-29,565Z" fill="#a6cfc6" stroke="#a6cfc6" stroke-width="1.51"/><path d="M316,-127L201,-127L201,-11Z" fill="#dff3ba" stroke="#dff3ba" stroke-width="1.51"/><path d="M86,-11L-29,-11L-29,104Z" fill="#e8f6b3" stroke="#e8f6b3" stroke-width="1.51"/><path d="M1123,-127L1008,-127L1123,-11Z" fill="#9db4bb" stroke="#9db4bb" stroke-width="1.51"/><path d="M1123,-11L1008,-127L1008,-11Z" fill="#9cb7b9" stroke="#9cb7b9" stroke-width="1.51"/><path d="M1353,795L1353,680L1238,795Z" fill="#2554a3" stroke="#2554a3" stroke-width="1.51"/><path d="M1353,450L1353,334L1238,334Z" fill="#4e82af" stroke="#4e82af" stroke-width="1.51"/><path d="M-145,565L-145,680L-29,680Z" fill="#a0bfc3" stroke="#a0bfc3" stroke-width="1.51"/><path d="M-145,219L-145,334L-29,219Z" fill="#c6e8c1" stroke="#c6e8c1" stroke-width="1.51"/><path d="M1353,910L1353,795L1238,910Z" fill="#26449c" stroke="#26449c" stroke-width="1.51"/><path d="M1238,910L1353,795L1238,795Z" fill="#264da0" stroke="#264da0" stroke-width="1.51"/><path d="M1353,334L1353,219L1238,219Z" fill="#668aac" stroke="#668aac" stroke-width="1.51"/><path d="M1238,104L1238,-11L1123,-11Z" fill="#92a3af" stroke="#92a3af" stroke-width="1.51"/><path d="M-145,680L-145,795L-29,795Z" fill="#9daabb" stroke="#9daabb" stroke-width="1.51"/><path d="M-29,910L-29,1026L86,1026Z" fill="#908b9b" stroke="#908b9b" stroke-width="1.51"/><path d="M-145,104L-145,219L-29,104Z" fill="#def2be" stroke="#def2be" stroke-width="1.51"/><path d="M-29,104L-145,219L-29,219Z" fill="#d4eebc" stroke="#d4eebc" stroke-width="1.51"/><path d="M86,-127L-29,-11L86,-11Z" fill="#edf8b4" stroke="#edf8b4" stroke-width="1.51"/><path d="M-145,910L-29,1026L-29,910Z" fill="#978fa9" stroke="#978fa9" stroke-width="1.51"/><path d="M1353,104L1238,-11L1238,104Z" fill="#8c9aac" stroke="#8c9aac" stroke-width="1.51"/><path d="M1123,1026L1238,1026L1238,910Z" fill="#204391" stroke="#204391" stroke-width="1.51"/><path d="M201,-127L86,-127L86,-11Z" fill="#e9f7b9" stroke="#e9f7b9" stroke-width="1.51"/><path d="M1238,-11L1123,-127L1123,-11Z" fill="#9aaab3" stroke="#9aaab3" stroke-width="1.51"/><path d="M1238,1026L1353,910L1238,910Z" fill="#243f95" stroke="#243f95" stroke-width="1.51"/><path d="M1238,-11L1238,-127L1123,-127Z" fill="#9ba7b6" stroke="#9ba7b6" stroke-width="1.51"/><path d="M1353,219L1353,104L1238,104Z" fill="#8192aa" stroke="#8192aa" stroke-width="1.51"/><path d="M-145,795L-145,910L-29,910Z" fill="#9b99b4" stroke="#9b99b4" stroke-width="1.51"/><path d="M-145,-11L-145,104L-29,-11Z" fill="#edf8bd" stroke="#edf8bd" stroke-width="1.51"/><path d="M-29,-11L-145,104L-29,104Z" fill="#e6f5ba" stroke="#e6f5ba" stroke-width="1.51"/><path d="M1353,219L1468,219L1353,104Z" fill="#7988a8" stroke="#7988a8" stroke-width="1.51"/><path d="M1353,334L1468,334L1353,219Z" fill="#5d7faa" stroke="#5d7faa" stroke-width="1.51"/><path d="M1353,450L1468,450L1353,334Z" fill="#4778ad" stroke="#4778ad" stroke-width="1.51"/><path d="M1353,565L1468,450L1353,450Z" fill="#3a71ad" stroke="#3a71ad" stroke-width="1.51"/><path d="M1468,565L1468,450L1353,565Z" fill="#356aa9" stroke="#356aa9" stroke-width="1.51"/><path d="M1468,565L1353,565L1353,680Z" fill="#2c65ab" stroke="#2c65ab" stroke-width="1.51"/><path d="M1468,565L1353,680L1468,680Z" fill="#2a5ca5" stroke="#2a5ca5" stroke-width="1.51"/><path d="M1468,680L1353,680L1353,795Z" fill="#2853a3" stroke="#2853a3" stroke-width="1.51"/><path d="M1468,795L1468,680L1353,795Z" fill="#254a9c" stroke="#254a9c" stroke-width="1.51"/><path d="M1468,450L1468,334L1353,334Z" fill="#4e77a8" stroke="#4e77a8" stroke-width="1.51"/><path d="M86,-127L-29,-127L-29,-11Z" fill="#f2fabb" stroke="#f2fabb" stroke-width="1.51"/><path d="M1353,-11L1238,-127L1238,-11Z" fill="#999eae" stroke="#999eae" stroke-width="1.51"/><path d="M1353,-11L1238,-11L1353,104Z" fill="#9197aa" stroke="#9197aa" stroke-width="1.51"/><path d="M1468,910L1468,795L1353,910Z" fill="#253a95" stroke="#253a95" stroke-width="1.51"/><path d="M1353,910L1468,795L1353,795Z" fill="#26439b" stroke="#26439b" stroke-width="1.51"/><path d="M1468,334L1468,219L1353,219Z" fill="#657fa6" stroke="#657fa6" stroke-width="1.51"/><path d="M1468,104L1353,-11L1353,104Z" fill="#8c8ea7" stroke="#8c8ea7" stroke-width="1.51"/><path d="M1238,1026L1353,1026L1353,910Z" fill="#20388c" stroke="#20388c" stroke-width="1.51"/><path d="M-29,-127L-145,-11L-29,-11Z" fill="#f3fabd" stroke="#f3fabd" stroke-width="1.51"/><path d="M-145,910L-145,1026L-29,1026Z" fill="#938ca4" stroke="#938ca4" stroke-width="1.51"/><path d="M1353,1026L1468,910L1353,910Z" fill="#233490" stroke="#233490" stroke-width="1.51"/><path d="M1353,-11L1353,-127L1238,-127Z" fill="#9a9bb1" stroke="#9a9bb1" stroke-width="1.51"/><path d="M1468,219L1468,104L1353,104Z" fill="#8088a4" stroke="#8088a4" stroke-width="1.51"/><path d="M1468,219L1584,219L1468,104Z" fill="#71809a" stroke="#71809a" stroke-width="1.51"/><path d="M1468,334L1584,334L1468,219Z" fill="#56779b" stroke="#56779b" stroke-width="1.51"/><path d="M1468,450L1584,450L1468,334Z" fill="#40709e" stroke="#40709e" stroke-width="1.51"/><path d="M1468,565L1584,450L1468,450Z" fill="#34699e" stroke="#34699e" stroke-width="1.51"/><path d="M1584,565L1584,450L1468,565Z" fill="#2c6398" stroke="#2c6398" stroke-width="1.51"/><path d="M1584,565L1468,565L1468,680Z" fill="#265d9d" stroke="#265d9d" stroke-width="1.51"/><path d="M1584,565L1468,680L1584,680Z" fill="#215595" stroke="#215595" stroke-width="1.51"/><path d="M1584,680L1468,680L1468,795Z" fill="#214b94" stroke="#214b94" stroke-width="1.51"/><path d="M1468,-11L1353,-127L1353,-11Z" fill="#9892aa" stroke="#9892aa" stroke-width="1.51"/><path d="M-29,-127L-145,-127L-145,-11Z" fill="#f6fcc5" stroke="#f6fcc5" stroke-width="1.51"/><path d="M1584,795L1584,680L1468,795Z" fill="#1d438d" stroke="#1d438d" stroke-width="1.51"/><path d="M1584,450L1584,334L1468,334Z" fill="#457098" stroke="#457098" stroke-width="1.51"/><path d="M1468,104L1468,-11L1353,-11Z" fill="#8f8da4" stroke="#8f8da4" stroke-width="1.51"/><path d="M1584,104L1468,-11L1468,104Z" fill="#838699" stroke="#838699" stroke-width="1.51"/><path d="M1468,910L1584,795L1468,795Z" fill="#203b8d" stroke="#203b8d" stroke-width="1.51"/><path d="M1353,1026L1468,1026L1468,910Z" fill="#1e2e85" stroke="#1e2e85" stroke-width="1.51"/><path d="M1584,910L1584,795L1468,910Z" fill="#1d3485" stroke="#1d3485" stroke-width="1.51"/><path d="M1584,334L1584,219L1468,219Z" fill="#5c7896" stroke="#5c7896" stroke-width="1.51"/><path d="M1468,1026L1584,910L1468,910Z" fill="#1d2d82" stroke="#1d2d82" stroke-width="1.51"/><path d="M1468,-11L1468,-127L1353,-127Z" fill="#9890ab" stroke="#9890ab" stroke-width="1.51"/><path d="M1584,219L1584,104L1468,104Z" fill="#768094" stroke="#768094" stroke-width="1.51"/><path d="M1584,-11L1468,-127L1468,-11Z" fill="#908a9b" stroke="#908a9b" stroke-width="1.51"/><path d="M1584,104L1584,-11L1468,-11Z" fill="#858593" stroke="#858593" stroke-width="1.51"/><path d="M1468,1026L1584,1026L1584,910Z" fill="#172876" stroke="#172876" stroke-width="1.51"/><path d="M1584,-11L1584,-127L1468,-127Z" fill="#8d889a" stroke="#8d889a" stroke-width="1.51"/></svg>